# xmcd CD database file
#
# Track frame offsets:
#	150
#	27627
#	48495
#
# Disc length: 1007 seconds
#
# Revision: 2
# Processed by: cddbd v1.5PL3 Copyright (c) Steve Scherf et al.
# Submitted via: CDex 1.50beta8
#
DISCID=2303ed03
DTITLE=サクラ大戦 - 奇跡の鐘 〜So special a day〜
DYEAR=1998
DGENRE=Game
TTITLE0=奇跡の鐘 〜So special a day〜
TTITLE1=Happy Day Happy X'mas
TTITLE2=奇跡の鐘 〜So special a day〜（オリジナルカラオケ）
EXTD=YEAR: 1998
EXTT0=
EXTT1=
EXTT2=
PLAYORDER=
